<svg width="77" height="37" viewBox="0 0 77 37" fill="none" xmlns="http://www.w3.org/2000/svg">
<path d="M19.4674 7.95264L25.4887 18.3818H13.4461L19.4674 7.95264Z" fill="#08546C"/>
<path d="M9.73402 20.4678L15.7553 30.8969H3.71274L9.73402 20.4678Z" fill="#08546C"/>
<path d="M34.9943 7.05067L28.8844 17.4282L22.9522 6.94808L34.9943 7.05067Z" fill="#08546C"/>
<path d="M34.997 30.5579L22.9553 30.7013L28.8519 20.2012L34.997 30.5579Z" fill="#08546C"/>
<path d="M13.2402 19.5184L25.2826 19.5793L19.2086 29.9779L13.2402 19.5184Z" fill="#08546C"/>
<path d="M3.50682 7.00372L15.5492 7.06467L9.47523 17.4632L3.50682 7.00372Z" fill="#08546C"/>
<path d="M50.8963 29V7.18182H59.5043C61.1591 7.18182 62.5689 7.49787 63.7337 8.12997C64.8984 8.75497 65.7862 9.625 66.397 10.7401C67.0149 11.848 67.3239 13.1264 67.3239 14.5753C67.3239 16.0241 67.0114 17.3026 66.3864 18.4105C65.7614 19.5185 64.8558 20.3814 63.6697 20.9993C62.4908 21.6172 61.0632 21.9261 59.3871 21.9261H53.9006V18.2294H58.6413C59.5291 18.2294 60.2607 18.0767 60.8359 17.7713C61.4183 17.4588 61.8516 17.0291 62.1357 16.4822C62.4268 15.9283 62.5724 15.2926 62.5724 14.5753C62.5724 13.8509 62.4268 13.2187 62.1357 12.679C61.8516 12.1321 61.4183 11.7095 60.8359 11.4112C60.2536 11.1058 59.5149 10.9531 58.62 10.9531H55.5092V29H50.8963ZM71.8622 29.277C71.1591 29.277 70.5554 29.0284 70.0511 28.5312C69.554 28.027 69.3054 27.4233 69.3054 26.7202C69.3054 26.0241 69.554 25.4276 70.0511 24.9304C70.5554 24.4332 71.1591 24.1847 71.8622 24.1847C72.544 24.1847 73.1406 24.4332 73.652 24.9304C74.1634 25.4276 74.419 26.0241 74.419 26.7202C74.419 27.1889 74.2983 27.6186 74.0568 28.0092C73.8224 28.3928 73.5135 28.7017 73.13 28.9361C72.7464 29.1634 72.3239 29.277 71.8622 29.277Z" fill="#08546C"/>
</svg>
